# xmcd
#
# Track frame offsets:
#	150
#	17381
#	30434
#	45153
#	56085
#	68387
#	87804
#	105011
#	119407
#	129677
#	146788
#	168340
#	180641
#	191206
#
# Disc length: 2798 seconds
# Revision: 0
# Processed by: cddbd v1.5.2PL0 Copyright (c) Steve Scherf et al.
# Submitted via: dBpowerAMP V12.0
#
DISCID=ac0aec0e
DTITLE=Peter Rowan - Carter Stanley's Eyes
DYEAR=2018
DGENRE=Bluegrass
TTITLE0=Drumbeats on the Watchtower
TTITLE1=A Tiny Broken Heart
TTITLE2=The True and Trembling Brake Man
TTITLE3=The Light in Carter Stanleys Eyes
TTITLE4=Let Me Love You One More Time
TTITLE5=Hills of Roane County
TTITLE6=Take My Ashes
TTITLE7=Too Late to Cry
TTITLE8=Alabama Bound
TTITLE9=Can't You Hear Me Calling
TTITLE10=Will You Miss Me
TTITLE11=A Crown He Wore
TTITLE12=Ridin' That Midnight Train
TTITLE13=A Vision of Mother
EXTD=
EXTT0=
EXTT1=
EXTT2=
EXTT3=
EXTT4=
EXTT5=
EXTT6=
EXTT7=
EXTT8=
EXTT9=
EXTT10=
EXTT11=
EXTT12=
EXTT13=
PLAYORDER=
